# xmcd CD database file
#
# Track frame offsets:
#	183
#	10028
#	39610
#	50068
#	54773
#	59153
#	78848
#	89900
#	99713
#	109148
#	128673
#	140143
#	166308
#	188443
#	205175
#	214040
#
# Disc length: 3147 seconds
#
# Revision: 3
# Processed by: cddbd v1.4PL0 Copyright (c) Steve Scherf et al.
# Submitted via: CDex 1.40Release
#
DISCID=e20c4910
DTITLE=James Brown - Live
DYEAR=1986
DGENRE=Blues
TTITLE0=Give it up, or Turn it a Loose
TTITLE1=lt's a Man's, Man's World
TTITLE2=I Got The Feeling
TTITLE3=I Can't Stand it
TTITLE4=Hot Pants
TTITLE5=Try me
TTITLE6=Feel Good
TTITLE7=Get up Off That Thing
TTITLE8=Please, Please, Please
TTITLE9=Jam
TTITLE10=Cold Sweat
TTITLE11=Georgia (on my Mind)
TTITLE12=lt's Too Funky in Here
TTITLE13=Gonna Have a Funky Good Time
TTITLE14=Get on The Good Foot
TTITLE15=Sex Machine
EXTD=YEAR: 1986 ID3G: 0
EXTT0=
EXTT1=
EXTT2=
EXTT3=
EXTT4=
EXTT5=
EXTT6=
EXTT7=
EXTT8=
EXTT9=
EXTT10=
EXTT11=
EXTT12=
EXTT13=
EXTT14=
EXTT15=
PLAYORDER=
